# Blender v2.76 (sub 0) OBJ File: 'theatreRoom.blend'
# www.blender.org
mtllib theatreRoom.mtl
o Cube_Cube.003
v -42.195572 46.080059 57.895176
v -42.195572 46.080067 1.734815
v -42.195572 -61.680584 1.734797
v -42.195572 -61.680592 57.895157
v 40.800072 -61.680584 1.734797
v 40.800072 46.080067 1.734815
v 40.800072 -61.680592 57.895157
v 40.800072 46.080059 57.895176
vt 0.989333 0.943608
vt 0.989333 0.025142
vt 0.510667 0.025142
vt 0.510667 0.943608
vt 0.504054 0.656317
vt 0.504054 0.005206
vt 0.002578 0.005206
vt 0.002578 0.656317
vt 0.441608 0.663213
vt 0.020344 0.663213
vt 0.020344 0.987664
vt 0.441608 0.987664
vt 0.989333 0.862358
vt 0.989333 0.154970
vt 0.510667 0.154969
vt 0.510667 0.862358
vn 1.000000 0.000000 0.000000
vn 0.577400 0.577400 0.577400
vn 0.707100 -0.000000 0.707100
vn -0.577400 0.577400 0.577400
vn 0.000000 -0.000000 1.000000
vn -1.000000 0.000000 0.000000
vn -0.577400 0.577400 -0.577400
vn -0.707100 0.000000 -0.707100
vn 0.000000 0.000000 -1.000000
vn 0.000000 1.000000 0.000000
usemtl Material.003
s 1
f 1/1/1 4/2/1 3/3/2 2/4/3
f 2/5/3 3/6/2 5/7/4 6/8/5
f 6/1/6 5/2/4 7/3/7 8/4/8
f 8/9/8 7/10/7 4/11/9 1/12/9
f 4/13/10 7/14/7 5/15/4 3/16/2
