# Blender v2.76 (sub 0) OBJ File: 'trainStand.blend'
# www.blender.org
mtllib trainStand.mtl
o Cube_Cube.001
v -7.236133 -1.657577 16.990923
v -7.236133 0.157493 16.990923
v -9.126188 -1.747809 -19.393103
v -9.126188 0.067261 -19.393103
v 6.917360 -1.657577 16.990923
v 6.917360 0.157493 16.990923
v 5.027306 -1.747809 -19.393103
v 5.027306 0.067261 -19.393103
v -7.952782 -2.384901 -16.732019
v -6.339200 -2.307868 14.329839
v 4.130373 -2.384901 -16.732019
v 5.743954 -2.307868 14.329839
v -7.952782 -12.515676 -16.704115
v -6.339200 -12.438643 14.357741
v 4.130373 -12.515676 -16.704115
v 5.743954 -12.438643 14.357741
v -8.850295 -12.997069 -18.739521
v -7.025245 -12.909942 16.393147
v 4.816418 -12.997069 -18.739521
v 6.641467 -12.909942 16.393147
v -8.850295 -13.964106 -18.735798
v -7.025245 -13.876979 16.396870
v 4.816418 -13.964106 -18.735798
v 6.641467 -13.876979 16.396870
v -9.318001 -14.501579 -19.796474
v -7.382752 -14.409191 17.457548
v 5.173925 -14.501579 -19.796474
v 7.109173 -14.409191 17.457548
v -9.318001 -16.815817 -19.790735
v -7.382752 -16.723429 17.463287
v 5.173925 -16.815817 -19.790735
v 7.109173 -16.723429 17.463287
vt 0.113122 0.270467
vt 0.690808 0.270467
vt 0.696700 0.299247
vt 0.119014 0.299248
vt 0.690808 0.046351
vt 0.719549 0.044858
vt 0.719549 0.268974
vt 0.113122 0.046351
vt 0.107372 0.017570
vt 0.685058 0.017570
vt 0.084381 0.271960
vt 0.084381 0.047844
vt 0.150503 -0.001739
vt 0.643682 -0.001739
vt 0.519262 0.990695
vt 0.026076 0.990559
vt 0.026077 0.829925
vt 0.519262 0.830060
vt 0.653621 0.318558
vt 0.160441 0.318559
vt 0.762763 0.056810
vt 0.762763 0.248143
vt 0.041117 0.260010
vt 0.041117 0.068678
vt 0.944039 0.934497
vt 0.944039 0.444163
vt 0.961462 0.409534
vt 0.961462 0.968099
vt 0.217277 0.660538
vt 0.710462 0.660403
vt 0.710462 0.821038
vt 0.217277 0.821173
vt 0.025685 0.660538
vt 0.025685 0.821173
vt 0.710854 0.990695
vt 0.710854 0.830060
vt 0.751169 0.968099
vt 0.979860 0.985834
vt 0.732874 0.985834
vt 0.768505 0.934497
vt 0.768505 0.444163
vt 0.751169 0.409534
vt 0.632177 0.394186
vt 0.102205 0.394186
vt 0.082903 0.382164
vt 0.651514 0.382164
vt 0.732874 0.389832
vt 0.979860 0.389832
vt 0.082903 0.601456
vt 0.036816 0.644437
vt 0.036816 0.339186
vt 0.102205 0.589435
vt 0.632177 0.589435
vt 0.651514 0.601456
vt 0.072323 0.378401
vt 0.663824 0.378401
vt 0.663824 0.607877
vt 0.072323 0.607877
vt 0.697602 0.339186
vt 0.697602 0.644437
vn -0.998700 0.000000 0.051900
vn 0.000000 0.000000 -1.000000
vn 0.998700 0.000000 -0.051900
vn 0.000000 0.000000 1.000000
vn 0.527900 -0.848900 -0.025300
vn 0.000000 1.000000 -0.002500
vn 0.998700 -0.000100 -0.051900
vn -0.527800 -0.848800 0.029500
vn 0.000000 -0.972500 -0.232800
vn 0.000000 -0.971400 0.237400
vn -0.515400 0.856600 0.024600
vn -0.998700 0.000100 0.051900
vn 0.000000 0.002800 1.000000
vn 0.000000 -0.002800 -1.000000
vn 0.000000 0.003900 1.000000
vn 0.000000 0.974200 0.225600
vn 0.000000 0.973200 -0.230200
vn 0.515300 0.856500 -0.028900
vn 0.791100 0.610300 -0.042600
vn 0.000000 -0.003900 -1.000000
vn 0.998700 -0.000200 -0.051900
vn -0.998700 0.000200 0.051900
vn 0.000000 0.002500 1.000000
vn -0.791200 0.610300 0.039600
vn 0.000000 0.893800 0.448500
vn 0.000000 0.892000 -0.452000
vn 0.000000 -1.000000 0.002500
vn 0.000000 -0.002500 -1.000000
usemtl Material.001
s off
f 2/1/1 4/2/1 3/3/1 1/4/1
f 4/2/2 8/5/2 7/6/2 3/7/2
f 8/5/3 6/8/3 5/9/3 7/10/3
f 6/8/4 2/1/4 1/11/4 5/12/4
f 7/10/5 5/9/5 12/13/5 11/14/5
f 6/8/6 8/5/6 4/2/6 2/1/6
f 11/15/7 12/16/7 16/17/7 15/18/7
f 1/4/8 3/3/8 9/19/8 10/20/8
f 3/7/9 7/6/9 11/21/9 9/22/9
f 5/12/10 1/11/10 10/23/10 12/24/10
f 14/25/11 13/26/11 17/27/11 18/28/11
f 10/29/12 9/30/12 13/31/12 14/32/12
f 12/33/13 10/29/13 14/32/13 16/34/13
f 9/35/14 11/15/14 15/18/14 13/36/14
f 20/37/15 18/28/15 22/38/15 24/39/15
f 16/40/16 14/25/16 18/28/16 20/37/16
f 13/26/17 15/41/17 19/42/17 17/27/17
f 15/41/18 16/40/18 20/37/18 19/42/18
f 23/43/19 24/44/19 28/45/19 27/46/19
f 17/27/20 19/42/20 23/47/20 21/48/20
f 19/42/21 20/37/21 24/39/21 23/47/21
f 18/28/22 17/27/22 21/48/22 22/38/22
f 28/45/23 26/49/23 30/50/23 32/51/23
f 22/52/24 21/53/24 25/54/24 26/49/24
f 24/44/25 22/52/25 26/49/25 28/45/25
f 21/53/26 23/43/26 27/46/26 25/54/26
f 30/55/27 29/56/27 31/57/27 32/58/27
f 25/54/28 27/46/28 31/59/28 29/60/28
f 27/46/7 28/45/7 32/51/7 31/59/7
f 26/49/12 25/54/12 29/60/12 30/50/12
