{"accessors":[{"bufferView":0,"componentType":5125,"count":21210,"type":"SCALAR"},{"bufferView":1,"componentType":5126,"count":5755,"max":[0.23323133587837219,0.55137008428573608,0.88786870241165161],"min":[-0.21378841996192932,-0.38876765966415405,-0.75619369745254517],"type":"VEC3"},{"bufferView":2,"componentType":5126,"count":5755,"type":"VEC3"},{"bufferView":3,"componentType":5126,"count":5755,"type":"VEC2"},{"bufferView":4,"componentType":5125,"count":5823,"type":"SCALAR"},{"bufferView":5,"componentType":5126,"count":2491,"max":[0.34961509704589844,0.32957988977432251,0.33407106995582581],"min":[-0.33940646052360535,-0.3296724259853363,-1],"type":"VEC3"},{"bufferView":6,"componentType":5126,"count":2491,"type":"VEC3"},{"bufferView":7,"componentType":5126,"count":2491,"type":"VEC2"},{"bufferView":8,"componentType":5125,"count":6000,"type":"SCALAR"},{"bufferView":9,"componentType":5126,"count":2500,"max":[0.28657960891723633,0,0],"min":[-0.26770403981208801,-0.55014455318450928,-0.59971380233764648],"type":"VEC3"},{"bufferView":10,"componentType":5126,"count":2500,"type":"VEC3"},{"bufferView":11,"componentType":5126,"count":2500,"type":"VEC2"},{"bufferView":12,"componentType":5125,"count":6000,"type":"SCALAR"},{"bufferView":13,"componentType":5126,"count":2500,"max":[0.28657960891723633,0,0.34020927548408508],"min":[-0.26770403981208801,-0.55014455318450928,-0.10708202421665192],"type":"VEC3"},{"bufferView":14,"componentType":5126,"count":2500,"type":"VEC3"},{"bufferView":15,"componentType":5126,"count":2500,"type":"VEC2"},{"bufferView":16,"componentType":5125,"count":6000,"type":"SCALAR"},{"bufferView":17,"componentType":5126,"count":2500,"max":[0.28657960891723633,0,0.7139551043510437],"min":[-0.26770403981208801,-0.55137002468109131,0],"type":"VEC3"},{"bufferView":18,"componentType":5126,"count":2500,"type":"VEC3"},{"bufferView":19,"componentType":5126,"count":2500,"type":"VEC2"},{"bufferView":20,"componentType":5125,"count":58584,"type":"SCALAR"},{"bufferView":21,"componentType":5126,"count":20726,"max":[0.37008190155029297,0.048339333385229111,0.99999988079071045],"min":[-0.37008190155029297,-0.3993380069732666,-0.9960634708404541],"type":"VEC3"},{"bufferView":22,"componentType":5126,"count":20726,"type":"VEC3"},{"bufferView":23,"componentType":5126,"count":20726,"type":"VEC2"}],"asset":{"generator":"Substance Painter 2017.3.1","version":"2.0"},"bufferViews":[{"buffer":0,"byteLength":84840,"byteOffset":0,"target":34963},{"buffer":0,"byteLength":69060,"byteOffset":84840,"target":34962},{"buffer":0,"byteLength":69060,"byteOffset":153900,"target":34962},{"buffer":0,"byteLength":46040,"byteOffset":222960,"target":34962},{"buffer":0,"byteLength":23292,"byteOffset":269000,"target":34963},{"buffer":0,"byteLength":29892,"byteOffset":292292,"target":34962},{"buffer":0,"byteLength":29892,"byteOffset":322184,"target":34962},{"buffer":0,"byteLength":19928,"byteOffset":352076,"target":34962},{"buffer":0,"byteLength":24000,"byteOffset":372004,"target":34963},{"buffer":0,"byteLength":30000,"byteOffset":396004,"target":34962},{"buffer":0,"byteLength":30000,"byteOffset":426004,"target":34962},{"buffer":0,"byteLength":20000,"byteOffset":456004,"target":34962},{"buffer":0,"byteLength":24000,"byteOffset":476004,"target":34963},{"buffer":0,"byteLength":30000,"byteOffset":500004,"target":34962},{"buffer":0,"byteLength":30000,"byteOffset":530004,"target":34962},{"buffer":0,"byteLength":20000,"byteOffset":560004,"target":34962},{"buffer":0,"byteLength":24000,"byteOffset":580004,"target":34963},{"buffer":0,"byteLength":30000,"byteOffset":604004,"target":34962},{"buffer":0,"byteLength":30000,"byteOffset":634004,"target":34962},{"buffer":0,"byteLength":20000,"byteOffset":664004,"target":34962},{"buffer":0,"byteLength":234336,"byteOffset":684004,"target":34963},{"buffer":0,"byteLength":248712,"byteOffset":918340,"target":34962},{"buffer":0,"byteLength":248712,"byteOffset":1167052,"target":34962},{"buffer":0,"byteLength":165808,"byteOffset":1415764,"target":34962}],"buffers":[{"byteLength":1581572,"uri":"train2.bin"}],"images":[{"uri":"boilerTexture_baseColor.png"},{"uri":"boilerTexture_occlusionRoughnessMetallic.png"},{"uri":"boilerTexture_normal.png"},{"uri":"lightsHubsTexture_baseColor.png"},{"uri":"lightsHubsTexture_occlusionRoughnessMetallic.png"},{"uri":"lightsHubsTexture_normal.png"},{"uri":"WheelsCapTexture_baseColor.png"},{"uri":"WheelsCapTexture_occlusionRoughnessMetallic.png"},{"uri":"WheelsCapTexture_normal.png"}],"materials":[{"alphaMode":"OPAQUE","name":"boilerTexture","normalTexture":{"index":2},"occlusionTexture":{"index":1},"pbrMetallicRoughness":{"baseColorTexture":{"index":0},"metallicRoughnessTexture":{"index":1}}},{"alphaMode":"OPAQUE","name":"lightsHubsTexture","normalTexture":{"index":5},"occlusionTexture":{"index":4},"pbrMetallicRoughness":{"baseColorTexture":{"index":3},"metallicRoughnessTexture":{"index":4}}},{"alphaMode":"OPAQUE","name":"WheelsCapTexture","normalTexture":{"index":8},"occlusionTexture":{"index":7},"pbrMetallicRoughness":{"baseColorTexture":{"index":6},"metallicRoughnessTexture":{"index":7}}}],"meshes":[{"name":"Boiler","primitives":[{"attributes":{"NORMAL":2,"POSITION":1,"TEXCOORD_0":3},"indices":0,"material":0,"mode":4}]},{"name":"Boiler Cab","primitives":[{"attributes":{"NORMAL":6,"POSITION":5,"TEXCOORD_0":7},"indices":4,"material":2,"mode":4}]},{"name":"Boiler Cab B_Bigwheel","primitives":[{"attributes":{"NORMAL":10,"POSITION":9,"TEXCOORD_0":11},"indices":8,"material":2,"mode":4}]},{"name":"Boiler Cab F_Bigwheel","primitives":[{"attributes":{"NORMAL":14,"POSITION":13,"TEXCOORD_0":15},"indices":12,"material":2,"mode":4}]},{"name":"Boiler Cab F_Smallwheel","primitives":[{"attributes":{"NORMAL":18,"POSITION":17,"TEXCOORD_0":19},"indices":16,"material":2,"mode":4}]},{"name":"Boiler Base","primitives":[{"attributes":{"NORMAL":22,"POSITION":21,"TEXCOORD_0":23},"indices":20,"material":1,"mode":4}]}],"nodes":[{"children":[1,3,5,7,9,11],"name":"locomotive.obj","scale":[18.280120849609375,18.280120849609375,18.280120849609375],"translation":[-0.17252397537231445,10.133362770080566,-1.0543727874755859]},{"children":[2],"name":"g Boiler"},{"mesh":0,"name":"Boiler"},{"children":[4],"name":"g Boiler Cab"},{"mesh":1,"name":"Boiler Cab"},{"children":[6],"name":"g Boiler Cab B_Bigwheel"},{"mesh":2,"name":"Boiler Cab B_Bigwheel"},{"children":[8],"name":"g Boiler Cab F_Bigwheel"},{"mesh":3,"name":"Boiler Cab F_Bigwheel"},{"children":[10],"name":"g Boiler Cab F_Smallwheel"},{"mesh":4,"name":"Boiler Cab F_Smallwheel"},{"children":[12],"name":"g Boiler Base"},{"mesh":5,"name":"Boiler Base"}],"samplers":[{"magFilter":9729,"minFilter":9985,"wrapS":10497,"wrapT":10497}],"scene":0,"scenes":[{"name":"Scene","nodes":[0]}],"textures":[{"sampler":0,"source":0},{"sampler":0,"source":1},{"sampler":0,"source":2},{"sampler":0,"source":3},{"sampler":0,"source":4},{"sampler":0,"source":5},{"sampler":0,"source":6},{"sampler":0,"source":7},{"sampler":0,"source":8}]}
